<?xml version="1.0" encoding="UTF-8"?>
<svg width="37px" height="37px" viewBox="0 0 37 37" version="1.1" xmlns="http://www.w3.org/2000/svg" xmlns:xlink="http://www.w3.org/1999/xlink">
    <defs>
        <linearGradient x1="82.9106156%" y1="-6.023753%" x2="38.2700027%" y2="100%" id="GreenOvalGradient">
            <stop stop-color="#2B7076" offset="0%"></stop>
            <stop stop-color="#68BF6A" offset="100%"></stop>
        </linearGradient>
        <linearGradient x1="82.9106156%" y1="-6.023753%" x2="38.2700027%" y2="100%" id="RedOvalGradient">
            <stop stop-color="#6F47B9" offset="0%"></stop>
            <stop stop-color="#BF6876" offset="100%"></stop>
        </linearGradient>
        
        <path d="M19.5,5 C11.4918711,5 5,11.4918711 5,19.5 C5,27.5081289 11.4918711,34 19.5,34 C27.5081289,34 34,27.5081289 34,19.5 C34,11.4918711 27.5081289,5 19.5,5 Z M19.5,7 C26.4035594,7 32,12.5964406 32,19.5 C32,26.4035594 26.4035594,32 19.5,32 C12.5964406,32 7,26.4035594 7,19.5 C7,12.5964406 12.5964406,7 19.5,7 Z" id="Oval"></path>

        <filter x="-20.7%" y="-20.7%" width="141.4%" height="141.4%" filterUnits="objectBoundingBox" id="GreenOvalFilter">
            <feMorphology radius="0.5" operator="dilate" in="SourceAlpha" result="shadowSpreadOuter1"></feMorphology>
            <feOffset dx="0" dy="0" in="shadowSpreadOuter1" result="shadowOffsetOuter1"></feOffset>
            <feGaussianBlur stdDeviation="1.5" in="shadowOffsetOuter1" result="shadowBlurOuter1"></feGaussianBlur>
            <feColorMatrix values="0 0 0 0 0.247058824   0 0 0 0 0.545098039   0 0 0 0 0.447058824  0 0 0 0.4 0" type="matrix" in="shadowBlurOuter1"></feColorMatrix>
        </filter>
        <filter x="-20.7%" y="-20.7%" width="141.4%" height="141.4%" filterUnits="objectBoundingBox" id="RedOvalFilter">
            <feMorphology radius="0.5" operator="dilate" in="SourceAlpha" result="shadowSpreadOuter1"></feMorphology>
            <feOffset dx="0" dy="0" in="shadowSpreadOuter1" result="shadowOffsetOuter1"></feOffset>
            <feGaussianBlur stdDeviation="1.5" in="shadowOffsetOuter1" result="shadowBlurOuter1"></feGaussianBlur>
            <feColorMatrix values="0 0 0 0 0.784166861   0 0 0 0 0.285187838   0 0 0 0 0.672967243  0 0 0 0.4 0" type="matrix" in="shadowBlurOuter1"></feColorMatrix>
        </filter>
    </defs>
    <g id="Time-Signature" stroke="none" stroke-width="1" fill="none" fill-rule="evenodd">
        <g id="Main-page-" transform="translate(-224.000000, -452.000000)" fill-rule="nonzero">
            <g id="Oval-Copy-41" transform="translate(242.500000, 470.500000) rotate(-180.000000) translate(-242.500000, -470.500000) translate(223.000000, 451.000000)">
                <use fill="black" fill-opacity="1" filter="" xlink:href="#Oval"></use>
                <use fill="#212427" xlink:href="#Oval"></use>
            </g>
        </g>
    </g>
</svg>