<?xml version="1.0" encoding="UTF-8"?>
<svg width="26px" height="28px" viewBox="0 0 26 28" version="1.1" xmlns="http://www.w3.org/2000/svg" xmlns:xlink="http://www.w3.org/1999/xlink">
    <title>99894B93-49EC-44D1-9256-3F4A592230B3</title>
    <defs>
        <polygon id="path-1" points="0 0 26 0 26 28 0 28"></polygon>
        <path d="M20.7401913,19.3125302 L20.7419033,19.3125302 C20.7419033,18.7169766 20.7419033,18.1211362 20.7419033,17.5255825 C20.7419033,17.4779841 20.742474,17.430099 20.740762,17.3825006 C20.7068076,16.438561 20.0474082,15.7478105 19.1976931,15.7658749 C18.3699485,15.7830792 17.7205356,16.454905 17.707125,17.3621422 C17.6882932,18.648733 17.6871519,19.9356106 17.7074104,21.2219147 C17.7216769,22.1363204 18.3705191,22.7920889 19.2119596,22.7998308 C20.0474082,22.8078594 20.7073783,22.1475031 20.7361967,21.2422731 C20.7567405,20.5996945 20.7401913,19.955969 20.7401913,19.3125302 M8.27951042,19.3136771 C8.27951042,18.6940376 8.29063832,18.074398 8.27694244,17.4550451 C8.2552573,16.4571989 7.59871115,15.7506779 6.72674026,15.7655882 C5.87474252,15.7802118 5.24244949,16.4689551 5.23189225,17.4321061 C5.2184817,18.6710986 5.21819637,19.9106645 5.23189225,21.1499436 C5.24302015,22.1151018 5.8764545,22.7923756 6.73900948,22.8001786 C7.59814049,22.8075727 8.24812403,22.1311591 8.27551578,21.1725959 C8.29320629,20.5535298 8.27893975,19.9333167 8.27951042,19.3136771 M4.00753783,16.5718939 C4.00753783,15.233977 3.99926324,13.8957734 4.00924982,12.5581433 C4.04035087,8.3634615 6.74386011,4.96533624 10.8417809,4.22383325 C13.5470021,3.73437246 16.2088531,3.972938 18.5400056,5.69106867 C20.738194,7.31170861 21.8846531,9.5279022 21.9557005,12.2364239 C22.0338811,15.2207871 21.9885135,18.2088778 21.9702524,21.1952481 C21.9616924,22.5520897 21.0668951,23.6758136 19.8727857,23.9267089 C18.5545575,24.2036972 17.29739,23.6350969 16.7778027,22.4632011 C16.5994709,22.0606217 16.4964665,21.5943866 16.4827706,21.1533845 C16.4439656,19.9123849 16.4750667,18.6690914 16.4679334,17.4269449 C16.4562349,15.3612884 18.4381425,14.0792854 20.1315808,14.7083873 C20.7090903,14.9228669 20.7447566,14.8881717 20.737338,14.3012202 C20.7199328,12.9220131 20.8583183,11.5359244 20.3815305,10.1862513 C19.4773173,7.62597283 17.6820159,6.04748329 15.0940657,5.46024504 C13.0864782,5.00461927 11.056635,5.0883466 9.17944373,6.06153343 C6.66539414,7.3644683 5.3388913,9.46854755 5.23274824,12.3212982 C5.20706847,13.0131956 5.2333189,13.7068135 5.22761229,14.3995711 C5.22475898,14.7749104 5.31606483,14.8858778 5.73692775,14.7729032 C6.22598472,14.6415775 6.77496116,14.549248 7.26316214,14.6361295 C8.58367304,14.8715409 9.43966541,15.8937598 9.48075304,17.2419992 C9.522126,18.6025683 9.52612064,19.9662915 9.48160903,21.3265739 C9.43053482,22.8901531 8.21331367,24.0262068 6.70248714,23.9995402 C5.21648439,23.9731604 4.0591827,22.8457088 4.02037772,21.3019145 C3.98043141,19.7262923 4.01153246,18.148663 4.01153246,16.5718939 C4.01010581,16.5718939 4.00896449,16.5718939 4.00753783,16.5718939" id="path-3"></path>
        <filter x="-25.0%" y="-22.5%" width="150.0%" height="145.0%" filterUnits="objectBoundingBox" id="HeadphonesFilter">
            <feMorphology radius="0.5" operator="dilate" in="SourceAlpha" result="shadowSpreadOuter1"></feMorphology>
            <feOffset dx="0" dy="0" in="shadowSpreadOuter1" result="shadowOffsetOuter1"></feOffset>
            <feGaussianBlur stdDeviation="1" in="shadowOffsetOuter1" result="shadowBlurOuter1"></feGaussianBlur>
            <feColorMatrix values="0 0 0 0 0.976230345   0 0 0 0 0.818873287   0 0 0 0 0.33964952  0 0 0 0.224809126 0" type="matrix" in="shadowBlurOuter1"></feColorMatrix>
        </filter>
    </defs>
    <g id="Time-Signature" stroke="none" stroke-width="1" fill="none" fill-rule="evenodd">
        <g id="Question-page-Copy-13" transform="translate(-947.000000, -290.000000)">
            <g id="Group-3" transform="translate(947.000000, 290.000000)">
                <mask id="mask-2" fill="white">
                    <use xlink:href="#path-1"></use>
                </mask>
                <g id="Clip-2"></g>
                <g id="Fill-1" mask="url(#mask-2)">
                    <use fill="black" fill-opacity="1" filter="url(#HeadphonesFilter)" xlink:href="#path-3"></use>
                    <use fill="#F2D57D" fill-rule="evenodd" xlink:href="#path-3"></use>
                </g>
            </g>
        </g>
    </g>
</svg>